<svg width="95" height="48" viewBox="0 0 95 48" fill="none" xmlns="http://www.w3.org/2000/svg">
<g clip-path="url(#clip0_102_30)">
<path d="M48.8595 13.449L44.8013 13.4172L38.7546 43.0522L36.6038 43.2431L39.2416 28.8236L37.9836 29.3965C36.9284 29.874 36.5632 29.9058 35.5892 30.0968C34.6153 30.256 33.6819 30.256 32.7891 30.1286C31.8151 30.0013 31.4093 29.8422 30.6788 29.4602C29.9483 29.0782 29.3396 28.5052 28.8932 27.8686C28.4468 27.2002 28.0816 26.6272 27.9598 25.7041C27.8381 24.781 28.0004 23.8579 28.2845 22.6164L30.4353 13.1944L26.0525 13.1307L26.3366 11.8256L49.103 12.0484L48.8595 13.449ZM42.5693 13.3535L32.6673 13.2262L30.5976 22.7756C30.4353 23.4759 30.3542 24.1443 30.3542 24.7173C30.3542 25.2903 30.4353 25.7996 30.6382 26.2452C30.8411 26.6909 31.1658 27.041 31.5716 27.2956C31.9774 27.5821 32.5456 27.7413 33.2761 27.8368C34.4123 27.9959 35.6704 27.8049 36.7255 27.3593C37.7806 26.9455 39.0793 26.468 39.8909 25.6723L42.5693 13.3535Z" fill="#F0F0F0"/>
<path d="M67.9734 44.9302L66.1066 43.8161L87.5339 21.6297L59.2483 4.85455L60.6687 3.39032L90.8616 21.2477L90.1311 22.0116L67.9734 44.9302Z" fill="#F1D00A"/>
<path d="M34.3311 47.5722L35.7515 46.0762L7.42531 29.2692L28.8931 7.11459L27.0264 6.00049L4.13818 29.6194L5.07156 30.1923L34.3311 47.5722Z" fill="#F1D00A"/>
<path d="M53.1629 3.90355L50.6768 3.60022L41.9444 47.6338L44.4305 47.9371L53.1629 3.90355Z" fill="#F1D00A"/>
<path d="M53.7697 26.7863L56.6916 13.3853L60.344 13.2261C60.7092 13.1943 61.0744 13.1943 61.4397 13.2261C65.9848 13.3535 66.4313 15.8363 65.8225 18.6693L65.3761 20.7383C64.5645 24.5263 63.1441 26.4043 57.138 26.659L53.7697 26.7863ZM62.2107 11.6346C61.7643 11.6346 61.3179 11.6346 60.8715 11.6346L54.5002 11.9211L47.6418 43.3704L50.2391 43.2749L53.4451 28.346L56.8945 28.1869C64.8891 27.8367 67.1211 25.2584 68.0139 20.7383L68.4198 18.6056C69.1502 14.6904 67.7704 11.7937 62.2107 11.6346Z" fill="#F0F0F0"/>
</g>
<defs>
<clipPath id="clip0_102_30">
<rect width="95" height="48" fill="white"/>
</clipPath>
</defs>
</svg>
