<svg width="390" height="97" viewBox="0 0 390 97" fill="none" xmlns="http://www.w3.org/2000/svg">
<path d="M0 23.4047L7.23667 23.675C14.43 24.0355 28.9033 24.5763 43.3333 19.3488C57.7633 14.1214 72.2367 2.94533 86.6667 0.692104C101.097 -1.56112 115.57 5.10844 130 12.5892C144.43 20.0699 158.903 28.542 173.333 28.9927C187.763 29.4433 202.237 21.8725 216.667 17.7265C231.097 13.4905 245.57 12.5891 260 14.6621C274.43 16.8252 288.903 21.8725 303.333 25.6579C317.763 29.4433 332.237 31.7867 346.667 28.542C361.097 25.2072 375.57 16.1943 382.763 11.6879L390 7.18141V96.4092H382.763C375.57 96.4092 361.097 96.4092 346.667 96.4092C332.237 96.4092 317.763 96.4092 303.333 96.4092C288.903 96.4092 274.43 96.4092 260 96.4092C245.57 96.4092 231.097 96.4092 216.667 96.4092C202.237 96.4092 187.763 96.4092 173.333 96.4092C158.903 96.4092 144.43 96.4092 130 96.4092C115.57 96.4092 101.097 96.4092 86.6667 96.4092C72.2367 96.4092 57.7633 96.4092 43.3333 96.4092C28.9033 96.4092 14.43 96.4092 7.23667 96.4092H0V23.4047Z" fill="#3E497A"/>
</svg>
