<svg width="392" height="122" viewBox="0 0 392 122" fill="none" xmlns="http://www.w3.org/2000/svg">
<path d="M0.259661 120.709L13.5137 114.364C29.5467 110.687 61.6125 103.334 94.6789 105.321C127.741 107.265 161.808 118.593 194.888 120.709C227.968 122.825 260.062 115.73 292.75 114.188C325.438 112.645 358.722 116.655 375.358 118.617L392 120.622L392 1.93113L356 1.93114C339.76 3.67085 313.206 -1.54828 280.725 1.93114C248.244 5.41056 214.981 2.52058 182.5 6C150.019 9.47942 115.481 2.52058 83 6C50.5192 9.47942 29.7542 4.26029 13.5137 6L0.259618 6L0.259661 120.709Z" fill="#3E497A"/>
</svg>
